<?xml version="1.0" encoding="UTF-8"?>
<svg width="48px" height="48px" viewBox="0 0 48 48" version="1.1" xmlns="http://www.w3.org/2000/svg" xmlns:xlink="http://www.w3.org/1999/xlink">
    <!-- Generator: Sketch 54.1 (76490) - https://sketchapp.com -->
    <title>Artboard</title>
    <desc>Created with Sketch.</desc>
    <g id="Artboard" stroke="none" stroke-width="1" fill="none" fill-rule="evenodd">
        <path d="M30.0857894,33.7546213 C27.7299126,35.1214804 24.490645,35.2619181 21.2316905,33.8590623 C18.5929772,32.7315048 16.4035312,30.7577723 15,28.5026575 C15.673699,29.0664362 16.4596643,29.517662 17.3017628,29.9121043 C20.66733,31.4964644 24.0321905,31.3879674 26.4001824,29.9161602 C26.398668,29.9146392 26.3976584,29.9136253 26.3966488,29.9121043 C23.0281539,27.3183166 20.1649583,23.9351373 18.031696,21.1725202 C17.5823782,20.7213958 17.2455287,20.1575157 16.9086792,19.6500642 C19.4911584,22.018239 23.589637,25.006469 25.0489985,25.852644 C21.9616741,22.5820177 19.210543,18.5225067 19.3226074,18.6350597 C24.2070009,23.5970222 28.7546963,26.4164227 28.7546963,26.4164227 C28.9051251,26.5015979 29.0212279,26.5725773 29.1146149,26.6359517 C29.2130499,26.384482 29.2993698,26.1233795 29.3720602,25.852644 C30.1580256,22.976967 29.2599958,19.7063406 27.29483,17 C31.8420206,19.7628706 34.5371195,24.9501925 33.4139513,29.2920998 C33.3846732,29.4092157 33.3528712,29.5248106 33.3185451,29.6383775 C33.3316698,29.6540944 33.3447945,29.6703182 33.3579191,29.6870491 C35.6032459,32.5064497 34.985882,35.4946796 34.7052162,34.9309009 C33.4871466,32.5368694 31.2322287,33.2689705 30.0858399,33.754672 L30.0857894,33.7546213 Z" id="Path" fill="#FFFFFF" fill-rule="nonzero"></path>
        <path d="M40,2.125 L40,45.125 L9,45.125 L9,11.1351777 L17.9542886,2.15186754 L17.9542886,2.125 L40,2.125 M37,6.125 L22.0018658,6.125 L22.0018658,15.1765828 L13,15.1765828 L13,42.125 L37,42.125 L37,6.125" id="Fill-604" fill="#FFFFFF"></path>
    </g>
</svg>